<svg xmlns="http://www.w3.org/2000/svg" xmlns:xlink="http://www.w3.org/1999/xlink" width="500" zoomAndPan="magnify" viewBox="0 0 375 374.999991" height="500" preserveAspectRatio="xMidYMid meet" version="1.0"><defs><clipPath id="daa961c23e"><path d="M 36.957031 141 L 212 141 L 212 317.976562 L 36.957031 317.976562 Z M 36.957031 141 " clip-rule="nonzero"/></clipPath><clipPath id="434e2e39fe"><path d="M 163 57 L 337.707031 57 L 337.707031 317.976562 L 163 317.976562 Z M 163 57 " clip-rule="nonzero"/></clipPath><clipPath id="51aca66ff8"><path d="M 36.957031 298 L 182 298 L 182 317.976562 L 36.957031 317.976562 Z M 36.957031 298 " clip-rule="nonzero"/></clipPath><clipPath id="b21e7ad9d1"><path d="M 163 96 L 337.707031 96 L 337.707031 317.976562 L 163 317.976562 Z M 163 96 " clip-rule="nonzero"/></clipPath></defs><rect x="-37.5" width="450" fill="#ffffff" y="-37.499999" height="449.999989" fill-opacity="1"/><rect x="-37.5" width="450" fill="#000000" y="-37.499999" height="449.999989" fill-opacity="1"/><g clip-path="url(#daa961c23e)"><path fill="#cb6ce6" d="M 187.492188 141.636719 L 138.699219 141.636719 L 36.957031 317.863281 L 183.335938 317.863281 L 211.890625 268.402344 L 191.644531 233.351562 L 187.492188 226.148438 L 183.335938 233.351562 L 158.933594 275.605469 L 110.148438 275.605469 Z M 187.492188 141.636719 " fill-opacity="1" fill-rule="evenodd"/></g><g clip-path="url(#434e2e39fe)"><path fill="#8c52ff" d="M 338.035156 317.863281 L 262.761719 187.492188 L 187.492188 57.125 L 163.097656 99.382812 L 174.324219 118.828125 L 187.492188 141.636719 L 200.878906 164.820312 L 264.839844 275.605469 L 278.003906 298.414062 L 289.242188 317.863281 Z M 338.035156 317.863281 " fill-opacity="1" fill-rule="evenodd"/></g><path fill="#2493d4" d="M 187.492188 141.636719 L 149.601562 161.652344 L 70.644531 298.414062 L 110.148438 275.605469 Z M 187.492188 141.636719 " fill-opacity="1" fill-rule="evenodd"/><g clip-path="url(#51aca66ff8)"><path fill="#2493d4" d="M 70.644531 298.414062 L 36.957031 317.863281 L 181.851562 317.863281 L 171.300781 298.414062 Z M 70.644531 298.414062 " fill-opacity="1" fill-rule="evenodd"/></g><path fill="#2493d4" d="M 158.933594 275.605469 L 171.300781 298.414062 L 183.980469 275.605469 L 188.984375 266.609375 L 187.492188 226.148438 Z M 158.933594 275.605469 " fill-opacity="1" fill-rule="evenodd"/><g clip-path="url(#b21e7ad9d1)"><path fill="#5e17eb" d="M 200.878906 164.820312 L 264.839844 275.605469 L 278.003906 298.414062 L 289.242188 317.863281 L 338.035156 317.863281 L 304.34375 298.414062 L 187.492188 96.019531 L 163.097656 99.382812 L 174.324219 118.828125 L 187.492188 141.636719 Z M 200.878906 164.820312 " fill-opacity="1" fill-rule="evenodd"/></g><path fill="#d9d9d9" d="M 187.492188 96.019531 L 187.492188 57.125 L 163.097656 99.382812 Z M 187.492188 96.019531 " fill-opacity="1" fill-rule="evenodd"/></svg>