<?xml version="1.0" encoding="UTF-8"?><svg id="Capa_1" xmlns="http://www.w3.org/2000/svg" viewBox="0 0 716.37 281.25"><defs><style>.cls-1{fill:#fff;}</style></defs><polygon class="cls-1" points="585.14 76.18 585.14 99.61 627.32 99.61 627.32 141.8 650.76 141.8 650.76 76.18 585.14 76.18"/><path class="cls-1" d="M268.59,118.96c-28.4,0-48.24,19.92-48.24,48.43s19.84,48.23,48.24,48.23,48.43-19.83,48.43-48.23-19.92-48.43-48.43-48.43M268.59,194.83c-13.37,0-21.34-10.25-21.34-27.43s7.98-27.64,21.34-27.64,21.55,10.33,21.55,27.64-8.06,27.43-21.55,27.43"/><polygon class="cls-1" points="329 86.72 328.98 215.62 355.5 215.62 355.53 86.72 329 86.72"/><rect class="cls-1" x="372.12" y="124.4" width="26.53" height="91.22"/><polygon class="cls-1" points="371.69 86.87 371.72 112.23 398.85 112.23 398.82 86.87 371.69 86.87"/><polygon class="cls-1" points="484.5 124.4 461.52 185.41 438.34 124.4 410.42 124.4 446.41 215.62 474.61 215.62 510.61 124.4 484.5 124.4"/><path class="cls-1" d="M141.03,162.12h37.38c-4.42,16.84-18.59,27.24-37.34,27.24-26.99,0-43.76-18.68-43.76-48.73s16.29-47.82,41.5-47.82c22.19,0,36.54,12.6,38.35,33.71l.09,1.11,29.88-1.23-.1-1.21c-3.1-37.84-28.21-59.55-68.9-59.55-19.91,0-38.2,7.4-51.49,20.84-13.56,13.71-21.02,32.94-21.02,54.16s7.13,40.67,20.08,54.23c12.77,13.39,30.68,20.77,50.4,20.77,17.98,0,38.9-6.31,48.06-20.29v20.29h23.33v-76.84h-66.46v23.33Z"/><path class="cls-1" d="M561.05,139.64c12.59,0,18.15,8.97,19.26,17.81h-39.98c1.74-7.23,6.7-17.81,20.72-17.81M583.96,180.52l-.03.1c-3.32,9.77-10.07,14.33-21.26,14.33-12.15,0-21.6-8.36-22.91-20.04h66.61v-9.83c0-12.61-4.04-23.98-11.39-32.03-8.05-8.82-19.71-13.48-33.72-13.48-27.66,0-47.73,20.75-47.73,49.34s19.43,46.72,48.34,46.72c22.91,0,38.84-11.64,43.77-31.96l-21.67-3.14Z"/></svg>