<svg xmlns="http://www.w3.org/2000/svg" xmlns:xlink="http://www.w3.org/1999/xlink" width="500" zoomAndPan="magnify" viewBox="0 0 375 374.999991" height="500" preserveAspectRatio="xMidYMid meet" version="1.0"><defs><clipPath id="ce595c4356"><path d="M 135.335938 171 L 196 171 L 196 233 L 135.335938 233 Z M 135.335938 171 " clip-rule="nonzero"/></clipPath><clipPath id="6e251552ab"><path d="M 179 142.273438 L 239.585938 142.273438 L 239.585938 233 L 179 233 Z M 179 142.273438 " clip-rule="nonzero"/></clipPath><clipPath id="61bb0ae196"><path d="M 135.335938 225 L 186 225 L 186 233 L 135.335938 233 Z M 135.335938 225 " clip-rule="nonzero"/></clipPath><clipPath id="9812867bc4"><path d="M 179 155 L 239.585938 155 L 239.585938 233 L 179 233 Z M 179 155 " clip-rule="nonzero"/></clipPath><clipPath id="d2af674f6a"><path d="M 179 142.273438 L 188 142.273438 L 188 157 L 179 157 Z M 179 142.273438 " clip-rule="nonzero"/></clipPath></defs><rect x="-37.5" width="450" fill="#ffffff" y="-37.499999" height="449.999989" fill-opacity="1"/><rect x="-37.5" width="450" fill="#000000" y="-37.499999" height="449.999989" fill-opacity="1"/><g clip-path="url(#ce595c4356)"><path fill="#cb6ce6" d="M 187.496094 171.605469 L 170.589844 171.605469 L 135.335938 232.667969 L 186.054688 232.667969 L 195.949219 215.53125 L 188.933594 203.386719 L 187.496094 200.890625 L 186.054688 203.386719 L 177.601562 218.027344 L 160.699219 218.027344 Z M 187.496094 171.605469 " fill-opacity="1" fill-rule="evenodd"/></g><g clip-path="url(#6e251552ab)"><path fill="#8c52ff" d="M 239.65625 232.667969 L 213.574219 187.496094 L 187.496094 142.324219 L 179.042969 156.96875 L 182.933594 163.703125 L 187.496094 171.605469 L 192.132812 179.640625 L 214.296875 218.027344 L 218.859375 225.929688 L 222.75 232.667969 Z M 239.65625 232.667969 " fill-opacity="1" fill-rule="evenodd"/></g><path fill="#2493d4" d="M 187.496094 171.605469 L 174.367188 178.542969 L 147.007812 225.929688 L 160.699219 218.027344 Z M 187.496094 171.605469 " fill-opacity="1" fill-rule="evenodd"/><g clip-path="url(#61bb0ae196)"><path fill="#2493d4" d="M 147.007812 225.929688 L 135.335938 232.667969 L 185.539062 232.667969 L 181.886719 225.929688 Z M 147.007812 225.929688 " fill-opacity="1" fill-rule="evenodd"/></g><path fill="#2493d4" d="M 177.601562 218.027344 L 181.886719 225.929688 L 186.28125 218.027344 L 188.011719 214.910156 L 187.496094 200.890625 Z M 177.601562 218.027344 " fill-opacity="1" fill-rule="evenodd"/><g clip-path="url(#9812867bc4)"><path fill="#5e17eb" d="M 192.132812 179.640625 L 214.296875 218.027344 L 218.859375 225.929688 L 222.75 232.667969 L 239.65625 232.667969 L 227.984375 225.929688 L 187.496094 155.800781 L 179.042969 156.96875 L 182.933594 163.703125 L 187.496094 171.605469 Z M 192.132812 179.640625 " fill-opacity="1" fill-rule="evenodd"/></g><g clip-path="url(#d2af674f6a)"><path fill="#d9d9d9" d="M 187.496094 155.800781 L 187.496094 142.324219 L 179.042969 156.96875 Z M 187.496094 155.800781 " fill-opacity="1" fill-rule="evenodd"/></g></svg>